<svg width="479" height="477" viewBox="0 0 479 477" fill="none" xmlns="http://www.w3.org/2000/svg">
<rect x="233" width="246" height="246" fill="#C0CEFF"/>
<path d="M233.561 15.9393C232.975 15.3536 232.025 15.3536 231.439 15.9393L221.893 25.4853C221.308 26.0711 221.308 27.0208 221.893 27.6066C222.479 28.1924 223.429 28.1924 224.015 27.6066L232.5 19.1213L240.985 27.6066C241.571 28.1924 242.521 28.1924 243.107 27.6066C243.692 27.0208 243.692 26.0711 243.107 25.4853L233.561 15.9393ZM231.439 476.061C232.025 476.646 232.975 476.646 233.561 476.061L243.107 466.515C243.692 465.929 243.692 464.979 243.107 464.393C242.521 463.808 241.571 463.808 240.985 464.393L232.5 472.879L224.015 464.393C223.429 463.808 222.479 463.808 221.893 464.393C221.308 464.979 221.308 465.929 221.893 466.515L231.439 476.061ZM231 17L231 475L234 475L234 17L231 17Z" fill="black"/>
<path d="M461.061 249.061C461.646 248.475 461.646 247.525 461.061 246.939L451.515 237.393C450.929 236.808 449.979 236.808 449.393 237.393C448.808 237.979 448.808 238.929 449.393 239.515L457.879 248L449.393 256.485C448.808 257.071 448.808 258.021 449.393 258.607C449.979 259.192 450.929 259.192 451.515 258.607L461.061 249.061ZM0.939331 246.939C0.353546 247.525 0.353546 248.475 0.939331 249.061L10.4853 258.607C11.0711 259.192 12.0208 259.192 12.6066 258.607C13.1924 258.021 13.1924 257.071 12.6066 256.485L4.12131 248L12.6066 239.515C13.1924 238.929 13.1924 237.979 12.6066 237.393C12.0208 236.808 11.0711 236.808 10.4853 237.393L0.939331 246.939ZM460 246.5L2 246.5L2 249.5L460 249.5L460 246.5Z" fill="black"/>
<path d="M378.227 105.742L377.852 107.289C377.43 107.305 376.734 107.43 375.766 107.664C374.797 107.898 374.094 108.141 373.656 108.391C372.984 108.781 372.43 109.531 371.992 110.641C371.57 111.734 371.156 113.141 370.75 114.859L365.102 139.328H362.992L349.352 111.25L345.18 129.391C344.992 130.203 344.836 131.023 344.711 131.852C344.586 132.68 344.523 133.352 344.523 133.867C344.523 134.414 344.578 134.859 344.688 135.203C344.797 135.531 344.945 135.805 345.133 136.023C345.398 136.352 346.062 136.664 347.125 136.961C348.188 137.258 348.891 137.422 349.234 137.453L348.883 139H335.242L335.594 137.453C336.109 137.406 336.867 137.258 337.867 137.008C338.867 136.742 339.531 136.492 339.859 136.258C340.484 135.836 341.016 135.156 341.453 134.219C341.891 133.266 342.344 131.742 342.812 129.648L346.539 113.523C346.648 113.008 346.727 112.57 346.773 112.211C346.82 111.836 346.844 111.492 346.844 111.18C346.844 110.805 346.797 110.453 346.703 110.125C346.625 109.781 346.43 109.422 346.117 109.047C345.57 108.422 344.898 107.992 344.102 107.758C343.32 107.508 342.617 107.352 341.992 107.289L342.367 105.742H351.906L364.562 131.734L368.383 115.164C368.57 114.336 368.727 113.531 368.852 112.75C368.977 111.953 369.039 111.273 369.039 110.711C369.039 110.195 368.984 109.766 368.875 109.422C368.781 109.062 368.633 108.797 368.43 108.625C368.055 108.297 367.422 108.016 366.531 107.781C365.641 107.531 364.906 107.367 364.328 107.289L364.703 105.742H378.227Z" fill="black"/>
<path d="M258.203 47.7344H258.109C257.151 48.5365 256.24 49.1667 255.375 49.625C254.51 50.0833 253.526 50.3125 252.422 50.3125C251.422 50.3125 250.63 50.026 250.047 49.4531C249.464 48.8698 249.172 48.1094 249.172 47.1719C249.172 46.9219 249.193 46.625 249.234 46.2812C249.276 45.9375 249.375 45.4271 249.531 44.75L250.75 39.875C250.865 39.4062 250.953 39 251.016 38.6562C251.078 38.3021 251.109 37.9635 251.109 37.6406C251.109 37.0573 251.01 36.6719 250.812 36.4844C250.625 36.2865 250.234 36.1875 249.641 36.1875C249.411 36.1875 249.12 36.2292 248.766 36.3125C248.411 36.3958 248.135 36.4635 247.938 36.5156L248.172 35.5156C248.984 35.151 249.698 34.875 250.312 34.6875C250.938 34.5 251.438 34.4062 251.812 34.4062C252.646 34.4062 253.26 34.5938 253.656 34.9688C254.062 35.3438 254.266 35.9062 254.266 36.6562C254.266 36.8438 254.245 37.099 254.203 37.4219C254.161 37.7448 254.099 38.0677 254.016 38.3906L252.594 44.0938C252.49 44.5312 252.401 44.9427 252.328 45.3281C252.255 45.7031 252.219 45.9896 252.219 46.1875C252.219 46.8854 252.385 47.4375 252.719 47.8438C253.062 48.25 253.562 48.4531 254.219 48.4531C254.979 48.4531 255.719 48.2656 256.438 47.8906C257.167 47.5156 257.849 47 258.484 46.3438L261.078 34.6562L263.781 34.4688L263.969 34.7031L261.281 46.9375C260.885 48.7292 260.38 50.2604 259.766 51.5312C259.151 52.8021 258.432 53.8281 257.609 54.6094C256.745 55.4323 255.812 56.026 254.812 56.3906C253.812 56.7552 252.672 56.9375 251.391 56.9375C250.505 56.9375 249.802 56.875 249.281 56.75C248.76 56.625 248.349 56.4531 248.047 56.2344C247.745 56.026 247.542 55.7917 247.438 55.5312C247.333 55.2708 247.281 55.0104 247.281 54.75C247.281 54.3021 247.417 53.9062 247.688 53.5625C247.958 53.2188 248.349 53.0469 248.859 53.0469C249.245 53.0469 249.573 53.1562 249.844 53.375C250.115 53.5938 250.333 53.8333 250.5 54.0938C250.688 54.375 250.859 54.6927 251.016 55.0469C251.172 55.401 251.297 55.6823 251.391 55.8906H251.766C252.359 55.8906 252.984 55.7448 253.641 55.4531C254.307 55.1615 254.917 54.7083 255.469 54.0938C256.062 53.4271 256.594 52.5677 257.062 51.5156C257.542 50.4635 257.922 49.2031 258.203 47.7344ZM277.541 32.7582H272.785V37.5148H271.445V32.7582H266.689V31.4398H271.445V26.6832H272.785V31.4398H277.541V32.7582Z" fill="black"/>
<path d="M438.703 223.953C438.693 224.557 438.469 225.005 438.031 225.297C437.604 225.578 437.135 225.719 436.625 225.719C436.312 225.719 435.958 225.667 435.562 225.562C435.167 225.448 434.854 225.354 434.625 225.281C434.156 225.698 433.609 226.312 432.984 227.125C432.37 227.938 431.786 228.833 431.234 229.812C431.484 230.802 431.708 231.651 431.906 232.359C432.104 233.057 432.318 233.76 432.547 234.469C432.745 235.104 433.052 235.615 433.469 236C433.896 236.375 434.453 236.562 435.141 236.562C435.391 236.562 435.734 236.531 436.172 236.469C436.609 236.396 436.948 236.318 437.188 236.234L436.906 237.266C435.906 237.682 435.151 237.953 434.641 238.078C434.141 238.203 433.599 238.266 433.016 238.266C432.286 238.266 431.682 238.099 431.203 237.766C430.734 237.432 430.354 236.745 430.062 235.703C429.854 234.943 429.682 234.307 429.547 233.797C429.422 233.276 429.297 232.76 429.172 232.25C428.693 232.969 428.297 233.583 427.984 234.094C427.672 234.594 427.151 235.286 426.422 236.172C425.786 236.943 425.203 237.49 424.672 237.812C424.141 238.135 423.599 238.297 423.047 238.297C422.557 238.297 422.156 238.156 421.844 237.875C421.521 237.583 421.359 237.182 421.359 236.672C421.359 236.182 421.547 235.766 421.922 235.422C422.297 235.068 422.812 234.891 423.469 234.891C423.802 234.891 424.125 234.953 424.438 235.078C424.76 235.193 425.094 235.302 425.438 235.406C425.833 235.031 426.354 234.448 427 233.656C427.656 232.865 428.266 231.964 428.828 230.953C428.63 230.214 428.411 229.401 428.172 228.516C427.943 227.63 427.724 226.854 427.516 226.188C427.245 225.344 426.932 224.802 426.578 224.562C426.224 224.323 425.771 224.203 425.219 224.203C424.917 224.203 424.594 224.245 424.25 224.328C423.917 224.411 423.604 224.495 423.312 224.578L423.609 223.547C424.411 223.214 425.13 222.943 425.766 222.734C426.411 222.516 426.849 222.406 427.078 222.406C427.797 222.406 428.391 222.583 428.859 222.938C429.339 223.281 429.719 223.953 430 224.953C430.323 226.109 430.51 226.818 430.562 227.078C430.625 227.328 430.74 227.828 430.906 228.578C431.406 227.807 431.812 227.156 432.125 226.625C432.438 226.094 432.948 225.391 433.656 224.516C434.312 223.693 434.917 223.13 435.469 222.828C436.031 222.516 436.568 222.359 437.078 222.359C437.536 222.359 437.922 222.51 438.234 222.812C438.557 223.104 438.714 223.484 438.703 223.953ZM450.666 220.758H445.91V225.515H444.57V220.758H439.814V219.44H444.57V214.683H445.91V219.44H450.666V220.758Z" fill="black"/>
</svg>
