<svg width="804" height="577" viewBox="0 0 804 577" fill="none" xmlns="http://www.w3.org/2000/svg">
<path d="M601.82 117L803.32 231.5L601.82 346L400.32 231.5L601.82 117Z" fill="#C0CEFF"/>
<path d="M1 230.5L201 117.5L398.5 229V460.5L201 576L2.5 460L1 230.5Z" fill="#D5FFD7"/>
<path d="M1 230.5L201 117.5L398.5 229M1 230.5L2.5 460L201 576M1 230.5L201 345.5M398.5 229V460.5L201 576M398.5 229L201 345.5M201 576V345.5" stroke="black" stroke-dasharray="2 2"/>
<path d="M629.447 233.747L628.088 234.576C627.778 234.289 627.198 233.886 626.347 233.366C625.497 232.847 624.828 232.521 624.342 232.388C623.591 232.19 622.668 232.328 621.574 232.803C620.503 233.278 619.216 233.979 617.713 234.908L596.417 248.216L594.925 246.724L605.134 217.224L589.357 227.102C588.65 227.544 587.959 228.013 587.285 228.51C586.611 229.008 586.092 229.439 585.727 229.803C585.341 230.19 585.065 230.543 584.899 230.864C584.744 231.173 584.656 231.471 584.634 231.759C584.589 232.179 584.838 232.869 585.379 233.83C585.921 234.792 586.302 235.405 586.523 235.67L585.181 236.515L575.535 226.87L576.878 226.025C577.275 226.356 577.916 226.787 578.8 227.317C579.695 227.836 580.341 228.129 580.739 228.196C581.479 228.339 582.336 228.234 583.308 227.881C584.291 227.516 585.689 226.759 587.501 225.61L601.538 216.843C601.98 216.556 602.345 216.302 602.632 216.081C602.93 215.849 603.19 215.622 603.411 215.401C603.676 215.136 603.891 214.854 604.057 214.556C604.245 214.258 604.361 213.866 604.405 213.379C604.46 212.551 604.289 211.772 603.891 211.043C603.516 210.313 603.129 209.706 602.731 209.22L604.09 208.391L610.835 215.136L601.405 242.465L615.824 233.449C616.542 232.996 617.221 232.538 617.862 232.074C618.514 231.599 619.039 231.162 619.437 230.764C619.801 230.4 620.066 230.057 620.232 229.737C620.42 229.416 620.503 229.124 620.481 228.858C620.448 228.361 620.199 227.715 619.735 226.919C619.282 226.113 618.879 225.478 618.525 225.014L619.884 224.185L629.447 233.747Z" fill="black"/>
<path d="M229.502 239.155L228.424 240.319C228.023 240.106 227.488 239.878 226.816 239.634C226.145 239.391 225.633 239.231 225.28 239.154C224.651 239.025 224.112 239.083 223.663 239.33C223.215 239.576 222.811 239.884 222.453 240.254L205.496 258.421C205.407 258.514 205.316 258.624 205.224 258.751C205.133 258.879 205.063 258.983 205.017 259.064C204.852 259.348 204.765 259.641 204.754 259.941C204.751 260.228 204.84 260.541 205.023 260.881C205.142 261.112 205.471 261.465 206.01 261.938C206.562 262.419 207.01 262.768 207.354 262.985L206.256 264.137L193.57 256.813L194.668 255.66C195.171 255.915 195.807 256.219 196.577 256.573C197.354 256.914 197.935 257.096 198.319 257.119C198.941 257.135 199.491 257.056 199.971 256.882C200.464 256.715 200.898 256.416 201.274 255.983L218.634 237.4L218.411 237.271L188.278 253.135L187.324 252.584L198.406 225.045L198.203 224.928L183.905 240.272C183.328 240.895 182.791 241.514 182.292 242.128C181.793 242.742 181.422 243.259 181.18 243.678C180.922 244.125 180.747 244.538 180.654 244.917C180.569 245.283 180.556 245.618 180.615 245.923C180.694 246.348 181.06 246.902 181.712 247.585C182.364 248.268 182.894 248.772 183.301 249.098L182.203 250.25L170.573 243.535L171.671 242.383C172.346 242.683 173.037 242.955 173.743 243.2C174.449 243.446 175.171 243.556 175.907 243.53C176.659 243.477 177.463 243.147 178.319 242.541C179.174 241.934 180.31 240.857 181.726 239.311L193.801 226.365C194.049 226.092 194.256 225.842 194.424 225.614C194.613 225.381 194.778 225.142 194.918 224.899C195.168 224.466 195.321 224.076 195.377 223.729C195.441 223.369 195.443 223.037 195.384 222.732C195.259 222.136 194.939 221.582 194.424 221.068C193.922 220.562 193.429 220.151 192.944 219.834L194.022 218.671L203.724 224.272L194.366 247.746L216.035 236.089C216.853 235.641 217.649 235.153 218.422 234.626C219.196 234.098 219.669 233.749 219.84 233.577L229.502 239.155Z" fill="black"/>
<path d="M615.023 307.953C615.012 308.557 614.788 309.005 614.351 309.297C613.924 309.578 613.455 309.719 612.945 309.719C612.632 309.719 612.278 309.667 611.882 309.562C611.486 309.448 611.174 309.354 610.945 309.281C610.476 309.698 609.929 310.312 609.304 311.125C608.689 311.938 608.106 312.833 607.554 313.812C607.804 314.802 608.028 315.651 608.226 316.359C608.424 317.057 608.637 317.76 608.867 318.469C609.064 319.104 609.372 319.615 609.788 320C610.216 320.375 610.773 320.562 611.46 320.562C611.71 320.562 612.054 320.531 612.492 320.469C612.929 320.396 613.268 320.318 613.507 320.234L613.226 321.266C612.226 321.682 611.471 321.953 610.96 322.078C610.46 322.203 609.919 322.266 609.335 322.266C608.606 322.266 608.002 322.099 607.523 321.766C607.054 321.432 606.674 320.745 606.382 319.703C606.174 318.943 606.002 318.307 605.867 317.797C605.742 317.276 605.617 316.76 605.492 316.25C605.012 316.969 604.617 317.583 604.304 318.094C603.992 318.594 603.471 319.286 602.742 320.172C602.106 320.943 601.523 321.49 600.992 321.812C600.46 322.135 599.919 322.297 599.367 322.297C598.877 322.297 598.476 322.156 598.163 321.875C597.841 321.583 597.679 321.182 597.679 320.672C597.679 320.182 597.867 319.766 598.242 319.422C598.617 319.068 599.132 318.891 599.788 318.891C600.122 318.891 600.445 318.953 600.757 319.078C601.08 319.193 601.413 319.302 601.757 319.406C602.153 319.031 602.674 318.448 603.32 317.656C603.976 316.865 604.585 315.964 605.148 314.953C604.95 314.214 604.731 313.401 604.492 312.516C604.262 311.63 604.044 310.854 603.835 310.188C603.564 309.344 603.252 308.802 602.898 308.562C602.544 308.323 602.091 308.203 601.538 308.203C601.236 308.203 600.913 308.245 600.57 308.328C600.236 308.411 599.924 308.495 599.632 308.578L599.929 307.547C600.731 307.214 601.45 306.943 602.085 306.734C602.731 306.516 603.169 306.406 603.398 306.406C604.117 306.406 604.71 306.583 605.179 306.938C605.658 307.281 606.038 307.953 606.32 308.953C606.643 310.109 606.83 310.818 606.882 311.078C606.945 311.328 607.059 311.828 607.226 312.578C607.726 311.807 608.132 311.156 608.445 310.625C608.757 310.094 609.268 309.391 609.976 308.516C610.632 307.693 611.236 307.13 611.788 306.828C612.351 306.516 612.887 306.359 613.398 306.359C613.856 306.359 614.242 306.51 614.554 306.812C614.877 307.104 615.033 307.484 615.023 307.953ZM626.986 304.758H622.229V309.515H620.89V304.758H616.133V303.44H620.89V298.683H622.229V303.44H626.986V304.758Z" fill="black"/>
<path d="M599.523 160.734H599.429C598.471 161.536 597.559 162.167 596.695 162.625C595.83 163.083 594.846 163.312 593.742 163.312C592.742 163.312 591.95 163.026 591.367 162.453C590.783 161.87 590.492 161.109 590.492 160.172C590.492 159.922 590.512 159.625 590.554 159.281C590.596 158.938 590.695 158.427 590.851 157.75L592.07 152.875C592.184 152.406 592.273 152 592.335 151.656C592.398 151.302 592.429 150.964 592.429 150.641C592.429 150.057 592.33 149.672 592.132 149.484C591.945 149.286 591.554 149.188 590.96 149.188C590.731 149.188 590.439 149.229 590.085 149.312C589.731 149.396 589.455 149.464 589.257 149.516L589.492 148.516C590.304 148.151 591.018 147.875 591.632 147.688C592.257 147.5 592.757 147.406 593.132 147.406C593.966 147.406 594.58 147.594 594.976 147.969C595.382 148.344 595.585 148.906 595.585 149.656C595.585 149.844 595.564 150.099 595.523 150.422C595.481 150.745 595.419 151.068 595.335 151.391L593.913 157.094C593.809 157.531 593.721 157.943 593.648 158.328C593.575 158.703 593.538 158.99 593.538 159.188C593.538 159.885 593.705 160.438 594.038 160.844C594.382 161.25 594.882 161.453 595.538 161.453C596.299 161.453 597.038 161.266 597.757 160.891C598.486 160.516 599.169 160 599.804 159.344L602.398 147.656L605.101 147.469L605.288 147.703L602.601 159.938C602.205 161.729 601.7 163.26 601.085 164.531C600.471 165.802 599.752 166.828 598.929 167.609C598.064 168.432 597.132 169.026 596.132 169.391C595.132 169.755 593.992 169.938 592.71 169.938C591.825 169.938 591.122 169.875 590.601 169.75C590.08 169.625 589.669 169.453 589.367 169.234C589.064 169.026 588.861 168.792 588.757 168.531C588.653 168.271 588.601 168.01 588.601 167.75C588.601 167.302 588.736 166.906 589.007 166.562C589.278 166.219 589.669 166.047 590.179 166.047C590.564 166.047 590.893 166.156 591.163 166.375C591.434 166.594 591.653 166.833 591.82 167.094C592.007 167.375 592.179 167.693 592.335 168.047C592.492 168.401 592.617 168.682 592.71 168.891H593.085C593.679 168.891 594.304 168.745 594.96 168.453C595.627 168.161 596.236 167.708 596.788 167.094C597.382 166.427 597.913 165.568 598.382 164.516C598.861 163.464 599.242 162.203 599.523 160.734ZM618.861 145.758H614.104V150.515H612.765V145.758H608.008V144.44H612.765V139.683H614.104V144.44H618.861V145.758Z" fill="black"/>
<path d="M430.913 19.7031L430.71 20.625L419.554 33.7656C419.929 33.776 420.335 33.7865 420.773 33.7969C421.21 33.7969 421.689 33.7969 422.21 33.7969C422.616 33.7969 423.044 33.7917 423.491 33.7812C423.939 33.7604 424.507 33.7344 425.195 33.7031C425.611 33.6823 425.95 33.5365 426.21 33.2656C426.481 32.9948 426.705 32.6927 426.882 32.3594C427.038 32.0885 427.262 31.6667 427.554 31.0938C427.846 30.5104 428.085 30 428.273 29.5625H429.21L428.148 35H415.898L416.148 33.9062L427.132 20.9375H425.085C424.179 20.9375 423.465 20.9531 422.945 20.9844C422.424 21.0156 421.934 21.1198 421.476 21.2969C421.132 21.4219 420.778 21.7812 420.413 22.375C420.049 22.9688 419.705 23.6562 419.382 24.4375H418.429L419.351 19.7031H430.913ZM443.173 17.7582H438.417V22.5148H437.077V17.7582H432.321V16.4398H437.077V11.6832H438.417V16.4398H443.173V17.7582Z" fill="black"/>
<path d="M401.38 0.93934C400.794 0.353553 399.845 0.353553 399.259 0.93934L389.713 10.4853C389.127 11.0711 389.127 12.0208 389.713 12.6066C390.299 13.1924 391.249 13.1924 391.834 12.6066L400.32 4.12132L408.805 12.6066C409.391 13.1924 410.34 13.1924 410.926 12.6066C411.512 12.0208 411.512 11.0711 410.926 10.4853L401.38 0.93934ZM399.259 461.061C399.845 461.646 400.794 461.646 401.38 461.061L410.926 451.515C411.512 450.929 411.512 449.979 410.926 449.393C410.34 448.808 409.391 448.808 408.805 449.393L400.32 457.879L391.834 449.393C391.248 448.808 390.299 448.808 389.713 449.393C389.127 449.979 389.127 450.929 389.713 451.515L399.259 461.061ZM398.82 2L398.82 460L401.82 460L401.82 2L398.82 2Z" fill="black"/>
<path d="M200.551 345.112C200.337 345.912 200.811 346.735 201.612 346.949L214.652 350.443C215.452 350.657 216.274 350.183 216.489 349.382C216.703 348.582 216.228 347.76 215.428 347.545L203.837 344.439L206.943 332.848C207.157 332.048 206.682 331.226 205.882 331.011C205.082 330.797 204.259 331.272 204.045 332.072L200.551 345.112ZM600.088 116.888C600.303 116.088 599.828 115.266 599.028 115.051L585.988 111.557C585.188 111.343 584.365 111.818 584.151 112.618C583.936 113.418 584.411 114.24 585.211 114.455L596.802 117.561L593.697 129.152C593.482 129.952 593.957 130.775 594.757 130.989C595.557 131.203 596.38 130.728 596.594 129.928L600.088 116.888ZM202.75 346.799L599.39 117.799L597.89 115.201L201.25 344.201L202.75 346.799Z" fill="black"/>
<path d="M201.612 115.051C200.811 115.266 200.337 116.088 200.551 116.888L204.045 129.928C204.259 130.728 205.082 131.203 205.882 130.989C206.682 130.775 207.157 129.952 206.943 129.152L203.837 117.561L215.428 114.455C216.228 114.24 216.703 113.418 216.489 112.618C216.274 111.818 215.452 111.343 214.652 111.557L201.612 115.051ZM599.028 346.949C599.828 346.735 600.303 345.912 600.088 345.112L596.594 332.072C596.38 331.272 595.557 330.797 594.757 331.011C593.957 331.226 593.482 332.048 593.697 332.848L596.802 344.439L585.211 347.545C584.411 347.76 583.936 348.582 584.151 349.382C584.365 350.183 585.188 350.657 585.988 350.443L599.028 346.949ZM201.25 117.799L597.89 346.799L599.39 344.201L202.75 115.201L201.25 117.799Z" fill="black"/>
</svg>
